<svg width="164" height="487" viewBox="0 0 164 487" fill="none" xmlns="http://www.w3.org/2000/svg">
<path d="M100.085 0.0122494C101.337 0.0110561 101.337 0.0110561 102.615 0.00983856C103.57 0.0066864 104.526 0.00353424 105.51 0.000286557C106.534 0.00231079 107.558 0.00433502 108.613 0.00642059C109.683 0.00546387 110.752 0.00450714 111.854 0.00352142C114.119 0.00284139 116.385 0.00468338 118.65 0.008862C122.073 0.0141653 125.496 0.00893565 128.92 0.00251434C156.331 -0.0110013 156.331 -0.0110013 161.679 1.13923C165.333 6.61918 163.264 13.8846 162.141 20.1374C161.49 23.1522 160.785 26.1492 160.061 29.1473C157.583 39.8672 155.351 50.6081 153.29 61.4144C153.144 62.1801 152.997 62.9458 152.847 63.7348C151.912 68.6305 150.985 73.5275 150.059 78.4249C149.216 82.8791 148.369 87.3324 147.522 91.7858C145.885 100.4 144.252 109.016 142.622 117.632C141.298 124.631 139.972 131.629 138.645 138.627C121.777 227.604 104.968 316.596 81.553 447.535C81.2996 448.967 81.0453 450.398 80.79 451.829C80.1448 455.456 79.5208 459.084 78.9267 462.719C78.8004 463.476 78.674 464.232 78.5438 465.012C78.3066 466.435 78.0754 467.859 77.852 469.284C77.0473 474.058 76.1369 478.917 73.6795 483.139C69.6914 485.947 66.413 486.514 61.6016 486.512C60.4234 486.518 59.2452 486.524 58.0313 486.53C56.7718 486.521 55.5123 486.512 54.2146 486.503C52.2546 486.503 52.2546 486.503 50.255 486.504C47.4954 486.504 44.7361 486.494 41.9766 486.475C38.4551 486.453 34.9341 486.452 31.4126 486.459C28.034 486.463 24.6556 486.451 21.2771 486.44C20.0196 486.441 18.7622 486.442 17.4666 486.443C11.501 486.395 6.2981 486.219 0.679452 484.139C-0.803536 477.616 0.399291 472.219 1.82337 465.757C2.29734 463.503 2.76997 461.248 3.24139 458.993C3.48355 457.849 3.72572 456.704 3.97523 455.525C5.04631 450.376 6.01958 445.21 6.98377 440.04C7.26985 438.514 7.26985 438.514 7.56171 436.958C8.16813 433.723 8.77244 430.487 9.37672 427.251C9.82341 424.865 10.2702 422.48 10.7172 420.094C11.798 414.324 12.8774 408.553 13.9561 402.782C15.2353 395.94 16.5163 389.097 17.7973 382.255C20.1244 369.825 22.4501 357.396 24.7749 344.966C27.0463 332.821 29.3184 320.677 31.5914 308.533C31.7324 307.779 31.8733 307.026 32.0186 306.25C32.7309 302.444 33.4432 298.639 34.1556 294.833C40.258 262.229 46.358 229.624 52.457 197.02C54.7075 184.989 56.9582 172.958 59.209 160.928C59.7995 157.771 60.3899 154.615 60.9804 151.459C62.6094 142.752 64.2383 134.045 65.8673 125.338C66.6986 120.894 67.5298 116.451 68.3611 112.008C68.5191 111.163 68.6772 110.318 68.84 109.448C70.7954 98.9956 72.7504 88.5431 74.7046 78.0904C75.6604 72.9786 76.6164 67.8668 77.5724 62.755C78.6256 57.1232 79.6784 51.4914 80.7301 45.8593C81.1403 43.6699 81.5527 41.4809 81.9675 39.2924C82.924 34.2413 83.8483 29.1892 84.6988 24.1192C84.8646 23.1653 85.0304 22.2115 85.2013 21.2288C85.5056 19.473 85.797 17.715 86.0715 15.9544C87.0696 10.3075 88.8048 5.48015 92.6795 1.13923C95.3381 0.0860941 97.2643 0.161152 100.085 0.0122494Z" fill="white"/>
</svg>
