<svg width="282" height="840" viewBox="0 0 282 840" fill="none" xmlns="http://www.w3.org/2000/svg">
<path d="M172.361 0.55155C174.518 0.549492 174.518 0.549492 176.718 0.547392C178.364 0.541956 180.009 0.536521 181.705 0.53092C183.468 0.534411 185.231 0.537902 187.048 0.541498C188.89 0.539848 190.732 0.538198 192.63 0.536499C196.531 0.535326 200.432 0.538502 204.333 0.545708C210.229 0.554854 216.124 0.545835 222.019 0.534762C269.225 0.511455 269.225 0.511455 278.437 2.49498C284.728 11.9449 281.165 24.4739 279.232 35.2565C278.111 40.4554 276.896 45.6235 275.65 50.7936C271.383 69.2796 267.539 87.8018 263.988 106.437C263.736 107.757 263.485 109.078 263.225 110.438C261.616 118.881 260.019 127.325 258.425 135.771C256.974 143.452 255.514 151.131 254.055 158.811C251.236 173.666 248.425 188.523 245.617 203.381C243.337 215.45 241.053 227.519 238.768 239.587C209.719 393.023 180.77 546.486 140.447 772.285C140.01 774.754 139.572 777.222 139.133 779.69C138.022 785.944 136.947 792.201 135.924 798.469C135.706 799.774 135.489 801.078 135.264 802.422C134.856 804.876 134.458 807.332 134.073 809.79C132.687 818.023 131.119 826.402 126.887 833.682C120.019 838.524 114.373 839.503 106.087 839.498C104.058 839.509 102.029 839.519 99.9387 839.53C97.7696 839.515 95.6006 839.499 93.3658 839.482C89.9904 839.484 89.9904 839.484 86.5468 839.485C81.7943 839.485 77.0424 839.467 72.29 839.436C66.2256 839.396 60.1618 839.395 54.0973 839.407C48.2789 839.414 42.4608 839.394 36.6424 839.374C34.4769 839.376 32.3113 839.378 30.0801 839.379C19.8065 839.296 10.8463 838.994 1.17012 835.407C-1.38381 824.158 0.68764 814.851 3.14013 803.708C3.95637 799.82 4.77032 795.932 5.58216 792.043C5.99921 790.07 6.41626 788.096 6.84595 786.063C8.69051 777.183 10.3666 768.274 12.0271 759.359C12.5198 756.729 12.5198 756.729 13.0224 754.046C14.0668 748.466 15.1075 742.886 16.1481 737.306C16.9174 733.192 17.6869 729.078 18.4566 724.964C20.3179 715.014 22.1768 705.062 24.0345 695.111C26.2375 683.311 28.4436 671.511 30.6497 659.712C34.6573 638.278 38.6624 616.844 42.6661 595.409C46.5778 574.466 50.4907 553.524 54.4052 532.581C54.648 531.282 54.8907 529.983 55.1409 528.645C56.3676 522.082 57.5943 515.519 58.8211 508.956C69.3305 452.732 79.8355 396.507 90.339 340.282C94.2147 319.536 98.0907 298.789 101.967 278.043C102.984 272.6 104.001 267.157 105.018 261.714C107.823 246.699 110.628 231.684 113.434 216.669C114.865 209.007 116.297 201.345 117.728 193.683C118 192.226 118.273 190.77 118.553 189.269C121.921 171.244 125.287 153.219 128.653 135.194C130.299 126.379 131.945 117.564 133.591 108.749C135.405 99.0369 137.218 89.325 139.03 79.6127C139.736 75.8372 140.446 72.0624 141.161 68.2884C142.808 59.578 144.4 50.8659 145.864 42.1228C146.15 40.478 146.435 38.8332 146.73 37.1385C147.254 34.1108 147.756 31.0792 148.228 28.043C149.947 18.3053 152.935 9.98071 159.608 2.49498C164.187 0.678892 167.504 0.808325 172.361 0.55155Z" fill="white"/>
</svg>
