<?xml version="1.0" encoding="UTF-8"?>
<svg version="1.1" xmlns="http://www.w3.org/2000/svg" width="512" height="512">
<path d="M0 0 C1.25237206 -0.00119339 1.25237206 -0.00119339 2.53004456 -0.00241089 C3.48551682 -0.00556305 4.44098907 -0.00871521 5.42541504 -0.01196289 C6.44937881 -0.00993866 7.47334259 -0.00791443 8.52833557 -0.00582886 C9.59785965 -0.00678558 10.66738373 -0.00774231 11.76931763 -0.00872803 C14.03461262 -0.00940806 16.29990957 -0.00756607 18.56520081 -0.00338745 C21.9885054 0.00191589 25.41167593 -0.0033138 28.8349762 -0.00973511 C56.24598576 -0.02325077 56.24598576 -0.02325077 61.59474182 1.12698364 C65.2480399 6.60693075 63.17905639 13.87238432 62.05646515 20.1251545 C61.40572244 23.13995143 60.70031229 26.13694595 59.97657776 29.13504028 C57.49871984 39.85491714 55.26670055 50.59583485 53.20509338 61.40213013 C53.05881237 62.16785926 52.91253135 62.93358838 52.76181757 63.72252142 C51.82773347 68.61826938 50.90028744 73.51525847 49.97459626 78.41259933 C49.13176264 82.86680357 48.28415809 87.32010061 47.43731689 91.77354431 C45.80010595 100.38814344 44.16777983 109.00366088 42.53755671 117.61958486 C41.21330567 124.61828927 39.88741508 131.61668132 38.56059265 138.61489868 C21.69277631 227.59158375 4.88300554 316.58360567 -18.53173828 447.5229044 C-18.78513234 448.95451844 -19.03943149 450.38597263 -19.29470825 451.81725216 C-19.9398932 455.44363589 -20.56389575 459.07208339 -21.15797424 462.70721436 C-21.28432786 463.46368161 -21.41068148 464.22014887 -21.54086399 464.99953938 C-21.77809422 466.422555 -22.00928575 467.84659865 -22.23271847 469.27184582 C-23.03739329 474.04593343 -23.94778239 478.90495445 -26.40525818 483.12698364 C-30.39331173 485.9347965 -33.67167641 486.50223419 -38.48313904 486.4992981 C-39.66133713 486.50552689 -40.83953522 486.51175568 -42.05343628 486.51817322 C-43.31293594 486.50896347 -44.57243561 486.49975372 -45.87010193 486.49026489 C-47.83010887 486.49101265 -47.83010887 486.49101265 -49.82971191 486.49177551 C-52.5893059 486.49168607 -55.34860606 486.48131588 -58.10813904 486.46316528 C-61.62959352 486.4405013 -65.1506185 486.43993299 -68.67212582 486.44668293 C-72.05066596 486.45084594 -75.42907649 486.43883639 -78.80760193 486.42776489 C-80.06507736 486.4286763 -81.3225528 486.42958771 -82.61813354 486.43052673 C-88.58367157 486.38239233 -93.78660676 486.20725633 -99.40525818 484.12698364 C-100.88824673 477.60406208 -99.68541945 472.20668012 -98.26133728 465.74499512 C-97.7873721 463.49055047 -97.31473547 461.23582616 -96.84332275 458.98084641 C-96.60115587 457.83629596 -96.35898899 456.69174552 -96.10948372 455.51251173 C-95.03840673 450.36336417 -94.06512789 445.19734093 -93.10093689 440.02728271 C-92.81485831 438.50207892 -92.81485831 438.50207892 -92.52300036 436.94606292 C-91.91657758 433.71057274 -91.31227179 430.47469119 -90.70799255 427.23880005 C-90.26130327 424.8532258 -89.81447762 422.46767708 -89.36752892 420.08215141 C-88.28673686 414.31168293 -87.20734833 408.54095325 -86.12860674 402.77010112 C-84.84942095 395.92739895 -83.56842352 389.08503626 -82.28736262 382.24268493 C-79.960309 369.81325294 -77.6346547 357.38355955 -75.30986023 344.95370483 C-73.03842327 332.80915726 -70.76631732 320.66473516 -68.49333191 308.52047729 C-68.35235296 307.76724384 -68.21137401 307.01401039 -68.06612296 306.23795168 C-67.35380302 302.4321324 -66.64147115 298.62631536 -65.92913461 294.82049918 C-59.82665707 262.2165154 -53.72673477 229.61205383 -47.62766159 197.00743306 C-45.377181 184.97675599 -43.12649804 172.94611678 -40.87574911 160.91548991 C-40.28525584 157.75920044 -39.69476806 154.60290993 -39.10428238 151.44661903 C-37.47533583 142.7395016 -35.84637974 134.03238596 -34.21738553 125.32527745 C-33.38611747 120.88206588 -32.55486451 116.4388515 -31.72361755 111.99563599 C-31.56558198 111.15090312 -31.40754642 110.30617025 -31.24472189 109.43583941 C-29.28926188 98.98339455 -27.33434942 88.53084748 -25.38006783 78.07818222 C-24.42432542 72.9663363 -23.46836198 67.85453173 -22.5123328 62.74273944 C-21.45908353 57.11096722 -20.40628327 51.47911121 -19.35458183 45.84704971 C-18.94441983 43.65763866 -18.53203666 41.46864227 -18.11717415 39.28011703 C-17.16074612 34.22906258 -16.23639293 29.1769585 -15.38591003 24.10690308 C-15.22009115 23.15307676 -15.05427227 22.19925045 -14.88342857 21.21652031 C-14.57909913 19.46080104 -14.28768881 17.70276027 -14.01322365 15.94212532 C-13.0151591 10.29526009 -11.2798964 5.46790379 -7.40525818 1.12698364 C-4.74665163 0.07384463 -2.82042663 0.14890212 0 0 Z " fill="#FFFFFF" transform="translate(274.40525817871094,12.873016357421875)"/>
<path d="M0 0 C5.22786824 3.66381592 8.80187422 8.09235072 12.1875 13.43359375 C12.64804276 14.14034744 13.10858551 14.84710114 13.58308411 15.57527161 C15.06591748 17.85605844 16.53325326 20.14634198 18 22.4375 C19.02080416 24.01654847 20.04253933 25.59499545 21.06518555 27.17285156 C23.09930528 30.313317 25.12803461 33.45717353 27.15380859 36.60302734 C29.65832778 40.48378755 32.20263361 44.33608581 34.76953125 48.17578125 C35.80883789 49.73824585 35.80883789 49.73824585 36.86914062 51.33227539 C38.12618105 53.21957315 39.38883766 55.10314746 40.65820312 56.98217773 C43.68604366 61.56501048 46.14855312 65.52349366 47 71 C46.25332357 74.00773886 45.24795704 74.8198236 42.7421875 76.640625 C36.46984397 80.16134099 30.1352251 83.49184254 23.68554688 86.67578125 C10.24762937 93.31363837 -3.0038504 100.32064922 -16.125 107.5625 C-26.14316857 113.08603078 -36.31340652 118.29667625 -46.5 123.5 C-57.00633254 128.87035735 -67.50498357 134.24432022 -77.875 139.875 C-78.72255859 140.33197266 -79.57011719 140.78894531 -80.44335938 141.25976562 C-89.24675561 145.93108784 -89.24675561 145.93108784 -96 153 C-95.78469455 157.95202534 -94.30852124 160.4028807 -91 164 C-88.05431852 166.04200032 -88.05431852 166.04200032 -84.6875 167.828125 C-84.07503418 168.16732971 -83.46256836 168.50653442 -82.83154297 168.85601807 C-76.60474681 172.27858013 -70.28749027 175.53156802 -63.95550537 178.75418091 C-54.18972299 183.72729563 -44.46925462 188.76423449 -34.875 194.0625 C-25.87716338 199.02998489 -16.76952627 203.76573469 -7.62826538 208.46148682 C1.48604907 213.14599736 10.52126952 217.95544918 19.48779297 222.91821289 C25.58182603 226.27700646 31.74656982 229.44472141 38.08129883 232.32788086 C42.12091039 234.24668267 45.01335126 235.92007449 47 240 C45.86799966 247.12584993 41.70966513 253.06065309 37.75 258.90625 C37.13664795 259.829823 36.5232959 260.753396 35.89135742 261.70495605 C33.93716913 264.64317263 31.96909185 267.57175581 30 270.5 C28.06904679 273.39230902 26.14099558 276.28653733 24.21313477 279.1809082 C22.95155351 281.07287496 21.68773682 282.96335311 20.42163086 284.85229492 C17.48566514 289.23715876 14.5780445 293.63445468 11.75 298.08984375 C11.00109497 299.26734192 11.00109497 299.26734192 10.23706055 300.46862793 C9.31782331 301.92058166 8.40474953 303.37646462 7.49926758 304.83703613 C5.36062027 308.2148421 3.49798284 310.97234328 0 313 C-5.34940101 314.14630022 -8.71683284 311.72112871 -13.07421875 308.9453125 C-21.28023118 303.48924549 -21.28023118 303.48924549 -24.63330078 301.23242188 C-30.29783819 297.43101775 -36.04759866 293.77188774 -41.8125 290.125 C-49.23649564 285.42309398 -56.59789426 280.64550562 -63.89428711 275.74829102 C-73.81590448 269.09574032 -83.83252753 262.58773135 -93.83935547 256.06445312 C-96.80474843 254.12753339 -99.76463611 252.18252924 -102.72265625 250.234375 C-106.79516538 247.55497473 -110.88544166 244.90586148 -114.99658203 242.28613281 C-116.73920606 241.1674217 -118.46317836 240.01976026 -120.18359375 238.8671875 C-126.58380684 234.87286003 -131.71607237 234.47127949 -139.2265625 234.88671875 C-140.59941406 234.94279297 -140.59941406 234.94279297 -142 235 C-143 234 -143 234 -143.18177795 230.6308136 C-143.1082351 225.27884808 -142.10194741 220.14935521 -141.09155273 214.90698242 C-140.88821823 213.8208667 -140.68488373 212.73475098 -140.47538757 211.61572266 C-139.80178605 208.0276135 -139.11780929 204.44156778 -138.43359375 200.85546875 C-137.95653804 198.3276901 -137.4800725 195.79980001 -137.00416565 193.27180481 C-136.00220536 187.95745982 -134.99574414 182.64399999 -133.98510742 177.33129883 C-132.96167002 171.95123302 -131.9421322 166.57045237 -130.92749023 161.1887207 C-130.80391754 160.53330099 -130.68034484 159.87788128 -130.55302751 159.20260036 C-130.30437294 157.88366543 -130.05572439 156.56472936 -129.80708194 155.24579215 C-127.53523123 143.19724398 -125.24536919 131.15224398 -122.93604088 119.11082268 C-121.73498235 112.8481743 -120.54244672 106.584071 -119.3626585 100.31738186 C-118.73727904 97.00907871 -118.10154424 93.7028442 -117.46190071 90.39727211 C-117.18287841 88.94477409 -116.90809539 87.49145362 -116.63809013 86.03725243 C-113.43518848 68.81973653 -113.43518848 68.81973653 -105.4375 63.3125 C-104.47199219 62.64605469 -103.50648438 61.97960937 -102.51171875 61.29296875 C-96.65496608 57.43146809 -90.70121419 53.71968819 -84.75390625 50 C-80.68238765 47.44506737 -76.67144555 44.81387207 -72.6875 42.125 C-66.58950892 38.01448371 -60.40152397 34.05759555 -54.1875 30.125 C-43.05904774 23.07462278 -32.00555106 15.90840593 -21.20703125 8.359375 C-20.61929932 7.94856689 -20.03156738 7.53775879 -19.42602539 7.11450195 C-17.8792348 6.02825615 -16.33780225 4.93439128 -14.796875 3.83984375 C-5.86593288 -2.03511957 -5.86593288 -2.03511957 0 0 Z " fill="#FFFFFF" transform="translate(439,100)"/>
<path d="M0 0 C3.12183557 1.62248356 5.97966565 3.56907253 8.875 5.5625 C10.65014986 6.75133272 12.42623655 7.93876743 14.203125 9.125 C15.14091797 9.75535156 16.07871094 10.38570312 17.04492188 11.03515625 C22.18854328 14.45517154 27.41177269 17.75000704 32.625 21.0625 C40.4857447 26.078432 48.29905969 31.15280246 56.04125977 36.34960938 C65.96497761 43.00487643 75.98389396 49.51579177 85.99462891 56.0390625 C88.64936764 57.77122022 91.30013162 59.50921841 93.94921875 61.25 C110.5764162 73.55632379 110.5764162 73.55632379 129.75 77.5625 C130.73484375 77.46066406 131.7196875 77.35882813 132.734375 77.25390625 C133.48203125 77.17011719 134.2296875 77.08632812 135 77 C135.27555482 84.27025817 134.50595745 90.91666863 133.05981445 98.03222656 C132.85326736 99.08765152 132.64672028 100.14307648 132.43391418 101.23048401 C131.75236892 104.70230219 131.05772171 108.17136536 130.36328125 111.640625 C129.88106628 114.08776511 129.39981639 116.53509557 128.91947937 118.98260498 C127.78105464 124.773788 126.6348931 130.56339245 125.48429221 136.35216784 C123.32219903 147.23038901 121.17345391 158.1112458 119.03136826 168.99342346 C118.54504119 171.46284636 118.05793462 173.93211587 117.57004166 176.40122986 C114.6229718 191.32738001 111.73215338 206.24705074 109.55305481 221.30792236 C107.95723337 231.86597935 105.46095713 241.92397368 97 249 C94.48063635 250.76325444 91.8923855 252.40857118 89.29296875 254.05078125 C87.75896087 255.03144173 86.22536204 256.01274232 84.69213867 256.99462891 C83.91099701 257.49367737 83.12985535 257.99272583 82.32504272 258.50689697 C78.71826257 260.82311005 75.13968323 263.18139729 71.5625 265.54296875 C70.15179512 266.47285092 68.74106902 267.40270089 67.33032227 268.33251953 C66.62336212 268.7986969 65.91640198 269.26487427 65.1880188 269.74517822 C52.0720593 278.39109755 38.90653207 286.94795439 25.65625 295.38671875 C19.0773531 299.57917532 12.54034079 303.83535929 6.01196289 308.10595703 C4.86328735 308.85594971 4.86328735 308.85594971 3.69140625 309.62109375 C2.68895874 310.27742798 2.68895874 310.27742798 1.66625977 310.94702148 C-1.77330034 313.12062189 -3.90203434 313.61856085 -8 313 C-14.56031725 308.89378676 -18.20987458 301.10452701 -22.12109375 294.6640625 C-25.31493582 289.43162183 -28.71182837 284.34114022 -32.125 279.25 C-32.72779785 278.34958984 -33.3305957 277.44917969 -33.95166016 276.52148438 C-35.63266594 274.01312658 -37.3159532 271.50631676 -39 269 C-41.6786383 265.00786685 -44.34422111 261.00738065 -47 257 C-47.66 256.02546875 -48.32 255.0509375 -49 254.046875 C-49.639375 253.08265625 -50.27875 252.1184375 -50.9375 251.125 C-51.50339844 250.28195312 -52.06929687 249.43890625 -52.65234375 248.5703125 C-54.25014726 245.52290754 -55.00451568 243.45901423 -55 240 C-51.30141553 234.79016597 -45.71244015 232.61077562 -40.0625 229.9375 C-32.37163819 226.19866565 -24.7945276 222.32873448 -17.3125 218.1875 C-9.10799404 213.65789046 -0.83195954 209.29056543 7.5 205 C17.53653021 199.82634878 27.48406196 194.51703685 37.37890625 189.078125 C42.59503678 186.21275553 47.83626541 183.39553608 53.08129883 180.58349609 C65.27063334 174.05702456 65.27063334 174.05702456 77.375 167.375 C78.39335937 166.80523437 79.41171875 166.23546875 80.4609375 165.6484375 C83.0449117 163.97084194 85.02116084 162.36080114 87 160 C87.57515033 156.04584148 87.59356555 153.9127334 85.39453125 150.53125 C82.63142687 147.61038273 79.69507311 145.80412128 76.1875 143.9375 C75.15230225 143.37059448 75.15230225 143.37059448 74.09619141 142.79223633 C67.08108893 138.97787982 59.98314995 135.31506091 52.89282227 131.64306641 C46.42026373 128.28598921 40.00874548 124.835042 33.625 121.3125 C20.78778167 114.2449778 7.72766526 107.61215379 -5.31036377 100.92573547 C-11.36666561 97.81732667 -17.40190463 94.6702236 -23.41308594 91.4753418 C-27.47721681 89.31656237 -31.56023148 87.20375027 -35.66796875 85.12890625 C-36.62864258 84.63890137 -37.58931641 84.14889648 -38.57910156 83.64404297 C-40.43173007 82.70000627 -42.28892264 81.76485245 -44.15136719 80.84033203 C-53.11553408 76.24762254 -53.11553408 76.24762254 -55 72 C-54.20254207 65.40694342 -50.40507363 60.21480251 -46.5 55.0625 C-42.17082506 49.15092789 -38.13986772 43.16149125 -34.375 36.875 C-30.57450351 30.53992976 -26.64502976 24.33189218 -22.4987793 18.21728516 C-19.39144195 13.63035266 -16.48178231 8.94595456 -13.66796875 4.171875 C-9.71037345 -0.98134043 -6.17231208 -1.70737234 0 0 Z " fill="#FFFFFF" transform="translate(81,100)"/>
<path d="M0 0 C0.66 0 1.32 0 2 0 C3.53056701 8.3009214 4.49441447 16.51866873 5.0625 24.9375 C5.14483887 26.1133667 5.22717773 27.2892334 5.31201172 28.50073242 C6.03068969 38.99556548 6.66543151 49.48554937 7 60 C7.03399902 60.94842773 7.06799805 61.89685547 7.10302734 62.87402344 C7.19843646 65.81184926 7.26036129 68.74861483 7.3125 71.6875 C7.34230957 72.57219971 7.37211914 73.45689941 7.40283203 74.3684082 C7.48763488 83.90512034 3.97558648 91.41662605 -1.75 98.875 C-2.63592227 100.06766978 -3.52000715 101.26170636 -4.40234375 102.45703125 C-4.8391748 103.04564941 -5.27600586 103.63426758 -5.72607422 104.24072266 C-8.34059887 107.85135214 -10.71246366 111.62404837 -13.11328125 115.37890625 C-15.18811166 118.2613311 -17.33215074 120.65449818 -20 123 C-20.99 123 -21.98 123 -23 123 C-23.32432251 114.03325477 -22.39751964 105.62350765 -20.8125 96.8125 C-20.6900592 96.11487549 -20.56761841 95.41725098 -20.44146729 94.69848633 C-17.47547584 77.82392968 -14.13322379 61.01498734 -10.81048203 44.20769882 C-10.37713656 42.01083141 -9.94661748 39.81342641 -9.51675415 37.61587524 C-8.82722456 34.09492993 -8.12808899 30.57601273 -7.42204094 27.05834389 C-7.03640313 25.1274201 -6.65899493 23.19485836 -6.28187561 21.26225281 C-4.7885592 13.88992235 -2.80711604 6.98162712 0 0 Z " fill="#FFFFFF" transform="translate(294,348)"/>
<path d="M0 0 C0.5970805 11.68950938 -1.22420553 22.3901656 -3.4375 33.8125 C-3.79776325 35.71868376 -4.15678474 37.62510258 -4.51464844 39.53173828 C-5.07944678 42.53760158 -5.64566617 45.54315232 -6.21694946 48.54779053 C-7.65587146 56.11884404 -9.03650347 63.69921052 -10.39453125 71.28515625 C-10.9871467 74.57888094 -11.58032276 77.87250425 -12.1736145 81.16610718 C-12.55355503 83.28133812 -12.9315909 85.39691219 -13.30758667 87.5128479 C-18.05152447 114.15461793 -18.05152447 114.15461793 -21 121 C-22.485 121.495 -22.485 121.495 -24 122 C-26.00135081 116.930385 -26.39747048 112.38652761 -26.59765625 107.015625 C-26.63684677 106.15998962 -26.67603729 105.30435425 -26.71641541 104.42279053 C-26.83985622 101.6988126 -26.951753 98.97452092 -27.0625 96.25 C-27.17884775 93.53989569 -27.29769542 90.82992982 -27.41929626 88.12005615 C-27.49406047 86.43942231 -27.56555946 84.75863852 -27.6330719 83.07769775 C-27.84573922 78.12310838 -28.26259253 73.22114744 -28.78038025 68.28955078 C-29.27218462 63.16245693 -29.22631265 58.02107661 -29.25 52.875 C-29.270625 51.74707031 -29.29125 50.61914062 -29.3125 49.45703125 C-29.36400386 38.44808222 -26.42124265 32.0545431 -20.25 23.125 C-19.71503906 22.33851074 -19.18007812 21.55202148 -18.62890625 20.74169922 C-17.09346625 18.48919387 -15.54722455 16.24441774 -14 14 C-13.27296875 12.9275 -12.5459375 11.855 -11.796875 10.75 C-4.43824405 0 -4.43824405 0 0 0 Z " fill="#FFFFFF" transform="translate(240,42)"/>
</svg>
