<svg width="215" height="372" viewBox="0 0 215 372" fill="none" xmlns="http://www.w3.org/2000/svg">
<path d="M55 58C58.1219 59.6225 60.9797 61.5691 63.875 63.5625C65.6502 64.7513 67.4263 65.9388 69.2031 67.125C70.1409 67.7554 71.0787 68.3857 72.0449 69.0352C77.1886 72.4552 82.4118 75.75 87.625 79.0625C95.4858 84.0784 103.299 89.1528 111.041 94.3496C120.965 101.005 130.984 107.516 140.995 114.039C143.649 115.771 146.3 117.509 148.949 119.25C165.576 131.556 165.576 131.556 184.75 135.563C185.735 135.461 186.72 135.359 187.734 135.254C188.482 135.17 189.23 135.086 190 135C190.276 142.27 189.506 148.917 188.06 156.032C187.853 157.088 187.647 158.143 187.434 159.23C186.752 162.702 186.058 166.171 185.363 169.641C184.881 172.088 184.4 174.535 183.919 176.983C182.781 182.774 181.635 188.563 180.484 194.352C178.322 205.23 176.173 216.111 174.031 226.993C173.545 229.463 173.058 231.932 172.57 234.401C169.623 249.327 166.732 264.247 164.553 279.308C162.957 289.866 160.461 299.924 152 307C149.481 308.763 146.892 310.409 144.293 312.051C142.759 313.031 141.225 314.013 139.692 314.995C138.911 315.494 138.13 315.993 137.325 316.507C133.718 318.823 130.14 321.181 126.563 323.543C125.152 324.473 123.741 325.403 122.33 326.333C121.623 326.799 120.916 327.265 120.188 327.745C107.072 336.391 93.9066 344.948 80.6563 353.387C74.0774 357.579 67.5404 361.835 61.012 366.106C59.8633 366.856 59.8633 366.856 58.6914 367.621C57.689 368.277 57.689 368.277 56.6663 368.947C53.2267 371.121 51.098 371.619 47 371C40.4397 366.894 36.7901 359.105 32.8789 352.664C29.6851 347.432 26.2882 342.341 22.875 337.25C22.2722 336.35 21.6694 335.449 21.0484 334.522C19.3674 332.013 17.6841 329.506 16 327C13.3214 323.008 10.6558 319.007 8.00002 315C7.34002 314.025 6.68002 313.051 6.00002 312.047C5.36065 311.083 4.72127 310.118 4.06252 309.125C3.49662 308.282 2.93072 307.439 2.34768 306.57C0.749873 303.523 -0.00449553 301.459 2.01504e-05 298C3.6986 292.79 9.28758 290.611 14.9375 287.938C22.6284 284.199 30.2055 280.329 37.6875 276.188C45.892 271.658 54.1681 267.291 62.5 263C72.5365 257.826 82.4841 252.517 92.3789 247.078C97.5951 244.213 102.836 241.396 108.081 238.584C120.271 232.057 120.271 232.057 132.375 225.375C133.393 224.805 134.412 224.235 135.461 223.648C138.045 221.971 140.021 220.361 142 218C142.575 214.046 142.594 211.913 140.395 208.531C137.631 205.61 134.695 203.804 131.188 201.938C130.152 201.371 130.152 201.371 129.096 200.792C122.081 196.978 114.983 193.315 107.893 189.643C101.42 186.286 95.0088 182.835 88.625 179.313C75.7878 172.245 62.7277 165.612 49.6897 158.926C43.6334 155.817 37.5981 152.67 31.5869 149.475C27.5228 147.317 23.4398 145.204 19.3321 143.129C18.3714 142.639 17.4107 142.149 16.4209 141.644C14.5683 140.7 12.7111 139.765 10.8487 138.84C1.88449 134.248 1.88449 134.248 2.01504e-05 130C0.797478 123.407 4.59495 118.215 8.50002 113.063C12.8292 107.151 16.8602 101.162 20.625 94.875C24.4255 88.5399 28.355 82.3319 32.5012 76.2173C35.6086 71.6304 38.5182 66.946 41.3321 62.1719C45.2896 57.0187 48.8277 56.2926 55 58Z" fill="white"/>
<path d="M214 0C214.597 11.6895 212.776 22.3902 210.563 33.8125C210.202 35.7187 209.843 37.6251 209.485 39.5317C208.921 42.5376 208.354 45.5432 207.783 48.5478C206.344 56.1188 204.964 63.6992 203.605 71.2852C203.013 74.5789 202.42 77.8725 201.826 81.1661C201.446 83.2813 201.068 85.3969 200.692 87.5128C195.948 114.155 195.948 114.155 193 121C191.515 121.495 191.515 121.495 190 122C187.999 116.93 187.603 112.387 187.402 107.016C187.363 106.16 187.324 105.304 187.284 104.423C187.16 101.699 187.048 98.9745 186.938 96.25C186.821 93.5399 186.702 90.8299 186.581 88.1201C186.506 86.4394 186.434 84.7586 186.367 83.0777C186.154 78.1231 185.737 73.2211 185.22 68.2896C184.728 63.1625 184.774 58.0211 184.75 52.875C184.729 51.7471 184.709 50.6191 184.688 49.457C184.636 38.4481 187.579 32.0545 193.75 23.125C194.285 22.3385 194.82 21.552 195.371 20.7417C196.907 18.4892 198.453 16.2444 200 14C200.727 12.9275 201.454 11.855 202.203 10.75C209.562 0 209.562 0 214 0Z" fill="white"/>
</svg>
