<svg width="215" height="372" viewBox="0 0 215 372" fill="none" xmlns="http://www.w3.org/2000/svg">
<path d="M159.115 313.246C155.993 311.624 153.135 309.677 150.24 307.684C148.465 306.495 146.688 305.307 144.912 304.121C143.974 303.491 143.036 302.86 142.07 302.211C136.926 298.791 131.703 295.496 126.49 292.184C118.629 287.168 110.816 282.093 103.073 276.897C93.1497 270.241 83.1308 263.73 73.1201 257.207C70.4654 255.475 67.8146 253.737 65.1655 251.996C48.5383 239.69 48.5383 239.69 29.3647 235.684C28.3799 235.786 27.395 235.887 26.3804 235.992C25.6327 236.076 24.885 236.16 24.1147 236.246C23.8392 228.976 24.6088 222.33 26.0549 215.214C26.2615 214.159 26.468 213.103 26.6808 212.016C27.3624 208.544 28.057 205.075 28.7514 201.606C29.2337 199.158 29.7149 196.711 30.1953 194.264C31.3337 188.472 32.4798 182.683 33.6304 176.894C35.7925 166.016 37.9413 155.135 40.0834 144.253C40.5697 141.783 41.0568 139.314 41.5447 136.845C44.4917 121.919 47.3826 106.999 49.5617 91.9383C51.1575 81.3802 53.6538 71.3222 62.1147 64.2462C64.6341 62.4829 67.2223 60.8376 69.8218 59.1954C71.3558 58.2148 72.8894 57.2334 74.4226 56.2516C75.2037 55.7525 75.9849 55.2535 76.7897 54.7393C80.3965 52.4231 83.975 50.0648 87.5522 47.7032C88.9629 46.7733 90.3737 45.8435 91.7844 44.9137C92.4914 44.4475 93.1983 43.9813 93.9267 43.501C107.043 34.8551 120.208 26.2982 133.458 17.8595C140.037 13.667 146.574 9.41083 153.103 5.14023C154.251 4.39024 154.251 4.39024 155.423 3.62509C156.426 2.96876 156.426 2.96876 157.448 2.29916C160.888 0.125563 163.017 -0.372376 167.115 0.246185C173.675 4.3524 177.325 12.1417 181.236 18.5821C184.43 23.8146 187.827 28.905 191.24 33.9962C191.843 34.8966 192.445 35.797 193.066 36.7247C194.747 39.2331 196.431 41.7399 198.115 44.2462C200.793 48.2383 203.459 52.2388 206.115 56.2462C206.775 57.2207 207.435 58.1953 208.115 59.1993C208.754 60.1635 209.393 61.1278 210.052 62.1212C210.618 62.9642 211.184 63.8073 211.767 64.6759C213.365 67.7233 214.119 69.7872 214.115 73.2462C210.416 78.456 204.827 80.6354 199.177 83.3087C191.486 87.0475 183.909 90.9175 176.427 95.0587C168.223 99.5883 159.947 103.956 151.615 108.246C141.578 113.42 131.631 118.729 121.736 124.168C116.52 127.033 111.278 129.851 106.033 132.663C93.8441 139.189 93.8441 139.189 81.7397 145.871C80.7214 146.441 79.703 147.011 78.6538 147.598C76.0698 149.275 74.0936 150.885 72.1147 153.246C71.5396 157.2 71.5212 159.333 73.7202 162.715C76.4833 165.636 79.4197 167.442 82.9272 169.309C83.9624 169.876 83.9624 169.876 85.0185 170.454C92.0336 174.268 99.1316 177.931 106.222 181.603C112.694 184.96 119.106 188.411 125.49 191.934C138.327 199.001 151.387 205.634 164.425 212.32C170.481 215.429 176.517 218.576 182.528 221.771C186.592 223.93 190.675 226.042 194.783 228.117C195.743 228.607 196.704 229.097 197.694 229.602C199.546 230.546 201.404 231.481 203.266 232.406C212.23 236.999 212.23 236.999 214.115 241.246C213.317 247.839 209.52 253.031 205.615 258.184C201.286 264.095 197.255 270.085 193.49 276.371C189.689 282.706 185.76 288.914 181.614 295.029C178.506 299.616 175.597 304.3 172.783 309.074C168.825 314.228 165.287 314.954 159.115 313.246Z" fill="white"/>
<path d="M0.114723 371.246C-0.482357 359.557 1.33893 348.856 3.55222 337.434C3.91249 335.528 4.27151 333.621 4.62937 331.714C5.19417 328.709 5.76039 325.703 6.33167 322.698C7.77059 315.127 9.15123 307.547 10.5093 299.961C11.1019 296.667 11.695 293.374 12.2883 290.08C12.6683 287.965 13.0463 285.849 13.4223 283.733C18.1662 257.092 18.1662 257.092 21.1147 250.246C22.5997 249.751 22.5997 249.751 24.1147 249.246C26.1161 254.316 26.5122 258.86 26.7124 264.231C26.7516 265.086 26.7908 265.942 26.8311 266.823C26.9546 269.547 27.0665 272.272 27.1772 274.996C27.2936 277.706 27.4124 280.416 27.534 283.126C27.6088 284.807 27.6803 286.488 27.7478 288.169C27.9605 293.123 28.3773 298.025 28.8951 302.957C29.3869 308.084 29.341 313.225 29.3647 318.371C29.3853 319.499 29.406 320.627 29.4272 321.789C29.4787 332.798 26.536 339.192 20.3647 348.121C19.8298 348.908 19.2948 349.694 18.7436 350.505C17.2082 352.757 15.6619 355.002 14.1147 357.246C13.3877 358.319 12.6607 359.391 11.9116 360.496C4.55297 371.246 4.55297 371.246 0.114723 371.246Z" fill="white"/>
</svg>
